M48
; DRILL file {KiCad 8.0.0-8.0.0-1~ubuntu22.04.1} date 2024-03-15T09:53:54-0300
; FORMAT={-:-/ absolute / inch / decimal}
; #@! TF.CreationDate,2024-03-15T09:53:54-03:00
; #@! TF.GenerationSoftware,Kicad,Pcbnew,8.0.0-8.0.0-1~ubuntu22.04.1
; #@! TF.FileFunction,Plated,1,2,PTH
FMAT,2
INCH
; #@! TA.AperFunction,Plated,PTH,ComponentDrill
T1C0.0315
; #@! TA.AperFunction,Plated,PTH,ComponentDrill
T2C0.0354
; #@! TA.AperFunction,Plated,PTH,ComponentDrill
T3C0.0394
; #@! TA.AperFunction,Plated,PTH,ComponentDrill
T4C0.0400
; #@! TA.AperFunction,Plated,PTH,ComponentDrill
T5C0.0472
; #@! TA.AperFunction,Plated,PTH,ComponentDrill
T6C0.0512
%
G90
G05
T1
X4.03Y-3.09
X4.43Y-3.09
X4.57Y-3.43
X4.66Y-3.01
X4.6616Y-2.88
X4.6684Y-3.43
X4.68Y-3.6
X4.68Y-3.77
X4.76Y-2.88
X4.9616Y-3.16
X4.9716Y-3.44
X5.06Y-3.01
X5.06Y-3.16
X5.07Y-3.44
X5.08Y-3.6
X5.08Y-3.77
X5.2Y-3.05
X5.2Y-3.15
X5.2Y-3.25
X5.2Y-3.35
X5.2Y-3.45
X5.2Y-3.55
X5.2Y-3.65
X5.5Y-3.05
X5.5Y-3.15
X5.5Y-3.25
X5.5Y-3.35
X5.5Y-3.45
X5.5Y-3.55
X5.5Y-3.65
X5.6916Y-3.64
X5.6992Y-3.3508
X5.6992Y-3.4492
X5.7Y-3.83
X5.7008Y-3.1008
X5.7008Y-3.1992
X5.79Y-3.64
X6.0Y-3.26
X6.0Y-3.66
X6.1Y-3.83
X6.21Y-3.59
X6.3908Y-3.83
X6.4892Y-3.83
X6.61Y-3.38
X6.61Y-3.59
X7.01Y-3.38
T2
X4.2638Y-3.5963
X4.2638Y-3.6947
X4.2638Y-3.7932
X4.3937Y-3.5963
X4.3937Y-3.6947
X4.3937Y-3.7932
X6.8847Y-3.5763
X6.8847Y-3.6747
X6.8847Y-3.7732
X7.0147Y-3.5763
X7.0147Y-3.6747
X7.0147Y-3.7732
T3
X4.84Y-4.14
X4.94Y-4.14
X5.4102Y-4.13
X5.5102Y-4.13
X7.2402Y-3.5
X7.25Y-4.03
X7.3402Y-3.5
X7.35Y-4.03
T4
X4.59Y-2.42
X4.69Y-2.42
X4.79Y-2.42
X4.89Y-2.42
X4.95Y-4.32
X4.99Y-2.42
X5.05Y-4.32
X5.09Y-2.42
X5.15Y-4.32
X5.19Y-2.42
X5.25Y-4.32
X5.29Y-2.42
X5.35Y-4.32
X5.39Y-2.42
X5.45Y-4.32
X5.49Y-2.42
X5.55Y-4.32
X5.65Y-2.42
X5.65Y-4.32
X5.75Y-2.42
X5.85Y-2.42
X5.85Y-4.32
X5.95Y-2.42
X5.95Y-4.32
X6.05Y-2.42
X6.05Y-4.32
X6.15Y-2.42
X6.15Y-4.32
X6.25Y-2.42
X6.25Y-4.32
X6.35Y-2.42
X6.35Y-4.32
X6.355Y-3.22
X6.355Y-3.32
X6.355Y-3.42
X6.45Y-4.32
X6.455Y-3.22
X6.455Y-3.32
X6.455Y-3.42
X6.55Y-2.42
X6.55Y-4.32
X6.65Y-2.42
X6.75Y-2.42
X6.75Y-4.32
X6.85Y-2.42
X6.85Y-4.32
X6.95Y-2.42
X6.95Y-4.32
X7.05Y-2.42
X7.05Y-4.32
X7.15Y-2.42
X7.15Y-4.32
X7.25Y-2.42
X7.25Y-4.32
X7.35Y-4.32
X7.45Y-4.32
X7.55Y-2.42
X7.55Y-2.52
X7.55Y-2.62
X7.55Y-2.72
X7.55Y-2.82
X7.55Y-2.92
X7.55Y-3.02
X7.55Y-3.12
X7.55Y-3.22
X7.55Y-3.32
X7.55Y-3.42
X7.55Y-3.52
X7.55Y-3.62
X7.55Y-3.72
X7.55Y-3.82
X7.55Y-3.92
X7.55Y-4.02
X7.55Y-4.12
X7.65Y-2.42
X7.65Y-2.52
X7.65Y-2.62
X7.65Y-2.72
X7.65Y-2.82
X7.65Y-2.92
X7.65Y-3.02
X7.65Y-3.12
X7.65Y-3.22
X7.65Y-3.32
X7.65Y-3.42
X7.65Y-3.52
X7.65Y-3.62
X7.65Y-3.72
X7.65Y-3.82
X7.65Y-3.92
X7.65Y-4.02
X7.65Y-4.12
T5
X5.07Y-3.32
X5.11Y-4.13
T6
X5.95Y-4.14
M30
