M48
; DRILL file {KiCad 8.0.0-8.0.0-1~ubuntu22.04.1} date 2024-03-19T12:15:45-0300
; FORMAT={-:-/ absolute / metric / decimal}
; #@! TF.CreationDate,2024-03-19T12:15:45-03:00
; #@! TF.GenerationSoftware,Kicad,Pcbnew,8.0.0-8.0.0-1~ubuntu22.04.1
; #@! TF.FileFunction,MixedPlating,1,2
FMAT,2
METRIC
; #@! TA.AperFunction,Plated,PTH,ComponentDrill
T1C0.800
; #@! TA.AperFunction,Plated,PTH,ComponentDrill
T2C1.000
%
G90
G05
T1
X102.362Y-78.486
X112.522Y-78.486
X116.078Y-87.122
X118.364Y-76.454
X118.404Y-73.152
X118.578Y-87.122
X118.872Y-91.44
X118.872Y-95.758
X120.904Y-73.152
X126.024Y-80.264
X126.278Y-87.376
X128.524Y-76.454
X128.524Y-80.264
X128.778Y-87.376
X129.032Y-91.44
X129.032Y-95.758
X132.08Y-77.47
X132.08Y-80.01
X132.08Y-82.55
X132.08Y-85.09
X132.08Y-87.63
X132.08Y-90.17
X132.08Y-92.71
X139.7Y-77.47
X139.7Y-80.01
X139.7Y-82.55
X139.7Y-85.09
X139.7Y-87.63
X139.7Y-90.17
X139.7Y-92.71
X144.566Y-92.456
X144.76Y-85.11
X144.76Y-87.61
X144.78Y-97.282
X144.8Y-78.76
X144.8Y-81.26
X147.066Y-92.456
X152.4Y-82.804
X152.4Y-92.964
X154.94Y-97.282
X157.734Y-91.186
X162.326Y-97.282
X164.826Y-97.282
X167.894Y-85.852
X167.894Y-91.186
X178.054Y-85.852
T2
X108.299Y-91.346
X108.299Y-93.846
X108.299Y-96.346
X111.599Y-91.346
X111.599Y-93.846
X111.599Y-96.346
X116.586Y-61.468
X119.126Y-61.468
X121.666Y-61.468
X122.936Y-105.156
X124.206Y-61.468
X125.476Y-105.156
X125.73Y-109.728
X126.746Y-61.468
X128.27Y-109.728
X128.778Y-84.328
X129.286Y-61.468
X129.794Y-104.902
X130.81Y-109.728
X131.826Y-61.468
X133.35Y-109.728
X135.89Y-109.728
X137.419Y-104.902
X138.43Y-109.728
X139.959Y-104.902
X140.97Y-109.728
X143.51Y-109.728
X151.13Y-105.156
X151.13Y-109.728
X174.873Y-90.838
X174.873Y-93.338
X174.873Y-95.838
X178.172Y-90.838
X178.172Y-93.338
X178.172Y-95.838
X181.61Y-109.728
X183.901Y-88.9
X184.15Y-102.362
X184.15Y-109.728
X186.441Y-88.9
X186.69Y-102.362
X186.69Y-109.728
X189.23Y-109.728
X191.77Y-61.468
X191.77Y-64.008
X191.77Y-104.648
X194.31Y-61.468
X194.31Y-64.008
X194.31Y-104.648
M30
