%TF.GenerationSoftware,KiCad,Pcbnew,8.0.0-8.0.0-1~ubuntu22.04.1*%
%TF.CreationDate,2024-03-21T12:33:08-03:00*%
%TF.ProjectId,shield_filtro_v2,73686965-6c64-45f6-9669-6c74726f5f76,rev?*%
%TF.SameCoordinates,Original*%
%TF.FileFunction,Copper,L2,Bot*%
%TF.FilePolarity,Positive*%
%FSLAX46Y46*%
G04 Gerber Fmt 4.6, Leading zero omitted, Abs format (unit mm)*
G04 Created by KiCad (PCBNEW 8.0.0-8.0.0-1~ubuntu22.04.1) date 2024-03-21 12:33:08*
%MOMM*%
%LPD*%
G01*
G04 APERTURE LIST*
G04 Aperture macros list*
%AMRoundRect*
0 Rectangle with rounded corners*
0 $1 Rounding radius*
0 $2 $3 $4 $5 $6 $7 $8 $9 X,Y pos of 4 corners*
0 Add a 4 corners polygon primitive as box body*
4,1,4,$2,$3,$4,$5,$6,$7,$8,$9,$2,$3,0*
0 Add four circle primitives for the rounded corners*
1,1,$1+$1,$2,$3*
1,1,$1+$1,$4,$5*
1,1,$1+$1,$6,$7*
1,1,$1+$1,$8,$9*
0 Add four rect primitives between the rounded corners*
20,1,$1+$1,$2,$3,$4,$5,0*
20,1,$1+$1,$4,$5,$6,$7,0*
20,1,$1+$1,$6,$7,$8,$9,0*
20,1,$1+$1,$8,$9,$2,$3,0*%
G04 Aperture macros list end*
%TA.AperFunction,ComponentPad*%
%ADD10C,2.000000*%
%TD*%
%TA.AperFunction,ComponentPad*%
%ADD11R,2.000000X2.000000*%
%TD*%
%TA.AperFunction,ComponentPad*%
%ADD12RoundRect,0.250000X1.250000X-0.450000X1.250000X0.450000X-1.250000X0.450000X-1.250000X-0.450000X0*%
%TD*%
%TA.AperFunction,ComponentPad*%
%ADD13O,3.000000X1.400000*%
%TD*%
%TA.AperFunction,ComponentPad*%
%ADD14R,1.700000X3.000000*%
%TD*%
%TA.AperFunction,ComponentPad*%
%ADD15O,1.700000X3.000000*%
%TD*%
%TA.AperFunction,ComponentPad*%
%ADD16RoundRect,0.250000X-0.450000X1.250000X-0.450000X-1.250000X0.450000X-1.250000X0.450000X1.250000X0*%
%TD*%
%TA.AperFunction,ComponentPad*%
%ADD17R,1.700000X2.200000*%
%TD*%
%TA.AperFunction,ComponentPad*%
%ADD18R,1.700000X1.700000*%
%TD*%
%TA.AperFunction,ComponentPad*%
%ADD19O,1.700000X1.700000*%
%TD*%
%TA.AperFunction,ComponentPad*%
%ADD20C,2.600000*%
%TD*%
%TA.AperFunction,ComponentPad*%
%ADD21O,2.000000X3.000000*%
%TD*%
%TA.AperFunction,ComponentPad*%
%ADD22C,2.500000*%
%TD*%
%TA.AperFunction,ComponentPad*%
%ADD23R,1.727200X1.727200*%
%TD*%
%TA.AperFunction,ComponentPad*%
%ADD24O,3.000000X2.000000*%
%TD*%
%TA.AperFunction,ComponentPad*%
%ADD25O,2.000000X1.600000*%
%TD*%
%TA.AperFunction,Conductor*%
%ADD26C,0.500000*%
%TD*%
%TA.AperFunction,Conductor*%
%ADD27C,1.000000*%
%TD*%
%TA.AperFunction,Profile*%
%ADD28C,0.050000*%
%TD*%
G04 APERTURE END LIST*
D10*
%TO.P,,*%
%TO.N,*%
X194310000Y-64008000D03*
%TD*%
%TO.P,,*%
%TO.N,*%
X126746000Y-61468000D03*
%TD*%
D11*
%TO.P,,GND1,GND*%
%TO.N,GND*%
X140970000Y-109728000D03*
%TD*%
D12*
%TO.P,SW1,1,A*%
%TO.N,Net-(SW1A-A)*%
X107699500Y-96346500D03*
D13*
%TO.P,SW1,2,B*%
%TO.N,/A1*%
X107699500Y-93846500D03*
%TO.P,SW1,3,C*%
%TO.N,Net-(SW1A-C)*%
X107699500Y-91346500D03*
%TO.P,SW1,4,A*%
%TO.N,Net-(SW1B-A)*%
X112199500Y-91346500D03*
%TO.P,SW1,5,B*%
%TO.N,Net-(A1Filt1-Pin_2)*%
X112199500Y-93846500D03*
%TO.P,SW1,6,C*%
%TO.N,Net-(SW1A-C)*%
X112199500Y-96346500D03*
%TD*%
D10*
%TO.P,,*%
%TO.N,*%
X186690000Y-109728000D03*
%TD*%
%TO.P,C8,1*%
%TO.N,Net-(C8-Pad1)*%
X162326000Y-97282000D03*
%TO.P,C8,2*%
%TO.N,Net-(SW2B-A)*%
X164826000Y-97282000D03*
%TD*%
%TO.P,R6,1*%
%TO.N,Net-(U1C--)*%
X144780000Y-97282000D03*
%TO.P,R6,2*%
%TO.N,Net-(C8-Pad1)*%
X154940000Y-97282000D03*
%TD*%
%TO.P,,*%
%TO.N,*%
X191770000Y-64008000D03*
%TD*%
D14*
%TO.P,DAC1Filt1,1,Pin_1*%
%TO.N,GND*%
X186441000Y-88900000D03*
D15*
%TO.P,DAC1Filt1,2,Pin_2*%
%TO.N,Net-(DAC1Filt1-Pin_2)*%
X183901000Y-88900000D03*
%TD*%
D10*
%TO.P,,*%
%TO.N,*%
X133350000Y-109728000D03*
%TD*%
%TO.P,,*%
%TO.N,*%
X130810000Y-109728000D03*
%TD*%
%TO.P,R2,1*%
%TO.N,Net-(SW2A-A)*%
X178054000Y-85852000D03*
%TO.P,R2,2*%
%TO.N,Net-(C4-Pad1)*%
X167894000Y-85852000D03*
%TD*%
%TO.P,C1,1*%
%TO.N,Net-(U1A-+)*%
X128524000Y-80264000D03*
%TO.P,C1,2*%
%TO.N,GND*%
X126024000Y-80264000D03*
%TD*%
%TO.P,C3,1*%
%TO.N,Net-(C3-Pad1)*%
X118404000Y-73152000D03*
%TO.P,C3,2*%
%TO.N,Net-(U1A--)*%
X120904000Y-73152000D03*
%TD*%
%TO.P,,*%
%TO.N,*%
X143510000Y-109728000D03*
%TD*%
D16*
%TO.P,SW2,1,A*%
%TO.N,Net-(SW2A-A)*%
X178172500Y-90238500D03*
D13*
%TO.P,SW2,2,B*%
%TO.N,/DAC1*%
X178772500Y-93338500D03*
%TO.P,SW2,3,C*%
%TO.N,Net-(SW2A-C)*%
X178772500Y-95838500D03*
%TO.P,SW2,4,A*%
%TO.N,Net-(SW2B-A)*%
X174272500Y-95838500D03*
%TO.P,SW2,5,B*%
%TO.N,Net-(DAC1Filt1-Pin_2)*%
X174272500Y-93338500D03*
%TO.P,SW2,6,C*%
%TO.N,Net-(SW2A-C)*%
X174272500Y-90838500D03*
%TD*%
D10*
%TO.P,,*%
%TO.N,*%
X125730000Y-109728000D03*
%TD*%
%TO.P,,*%
%TO.N,*%
X135890000Y-109728000D03*
%TD*%
%TO.P,C5,1*%
%TO.N,Net-(U1B-+)*%
X128778000Y-87376000D03*
%TO.P,C5,2*%
%TO.N,GND*%
X126278000Y-87376000D03*
%TD*%
%TO.P,,*%
%TO.N,*%
X194310000Y-61468000D03*
%TD*%
%TO.P,R7,1*%
%TO.N,Net-(C7-Pad1)*%
X118872000Y-91440000D03*
%TO.P,R7,2*%
%TO.N,Net-(U1B-+)*%
X129032000Y-91440000D03*
%TD*%
%TO.P,,*%
%TO.N,*%
X128270000Y-109728000D03*
%TD*%
%TO.P,,*%
%TO.N,*%
X191770000Y-61468000D03*
%TD*%
%TO.P,R5,1*%
%TO.N,Net-(U1A--)*%
X129032000Y-95758000D03*
%TO.P,R5,2*%
%TO.N,Net-(C7-Pad1)*%
X118872000Y-95758000D03*
%TD*%
%TO.P,,*%
%TO.N,*%
X184150000Y-109728000D03*
%TD*%
%TO.P,R3,1*%
%TO.N,Net-(C3-Pad1)*%
X118364000Y-76454000D03*
%TO.P,R3,2*%
%TO.N,Net-(U1A-+)*%
X128524000Y-76454000D03*
%TD*%
D17*
%TO.P,Fuente +,1,Pin_1*%
%TO.N,GND*%
X139959000Y-104902000D03*
D10*
%TO.P,Fuente +,2,Pin_2*%
%TO.N,Vcc*%
X137419000Y-104902000D03*
%TD*%
%TO.P,,*%
%TO.N,*%
X189230000Y-109728000D03*
%TD*%
%TO.P,,*%
%TO.N,*%
X119126000Y-61468000D03*
%TD*%
%TO.P,,*%
%TO.N,*%
X116586000Y-61468000D03*
%TD*%
%TO.P,R4,1*%
%TO.N,Net-(C4-Pad1)*%
X167894000Y-91186000D03*
%TO.P,R4,2*%
%TO.N,Net-(U1C-+)*%
X157734000Y-91186000D03*
%TD*%
D18*
%TO.P,DAC1,1,Pin_1*%
%TO.N,/DAC1*%
X184150000Y-102362000D03*
D19*
%TO.P,DAC1,2,Pin_2*%
%TO.N,GND*%
X186690000Y-102362000D03*
%TD*%
D20*
%TO.P,A1,1,Pin_1*%
%TO.N,/A1*%
X151130000Y-105156000D03*
%TD*%
D10*
%TO.P,C6,1*%
%TO.N,Net-(U1D-+)*%
X144800000Y-78760000D03*
%TO.P,C6,2*%
%TO.N,GND*%
X144800000Y-81260000D03*
%TD*%
D14*
%TO.P,A1Filt1,1,Pin_1*%
%TO.N,GND*%
X125476000Y-105156000D03*
D21*
%TO.P,A1Filt1,2,Pin_2*%
%TO.N,Net-(A1Filt1-Pin_2)*%
X122936000Y-105156000D03*
%TD*%
D10*
%TO.P,,*%
%TO.N,*%
X131826000Y-61468000D03*
%TD*%
%TO.P,,*%
%TO.N,*%
X151130000Y-109728000D03*
%TD*%
%TO.P,,*%
%TO.N,*%
X181610000Y-109728000D03*
%TD*%
%TO.P,R1,1*%
%TO.N,Net-(SW1A-A)*%
X102362000Y-78486000D03*
%TO.P,R1,2*%
%TO.N,Net-(C3-Pad1)*%
X112522000Y-78486000D03*
%TD*%
D22*
%TO.P,Vcc,1*%
%TO.N,Vcc*%
X129794000Y-104902000D03*
%TD*%
D10*
%TO.P,R8,1*%
%TO.N,Net-(C8-Pad1)*%
X152400000Y-92964000D03*
%TO.P,R8,2*%
%TO.N,Net-(U1D-+)*%
X152400000Y-82804000D03*
%TD*%
D23*
%TO.P,,GND1,GND*%
%TO.N,GND*%
X191770000Y-104648000D03*
%TD*%
D10*
%TO.P,,*%
%TO.N,*%
X121666000Y-61468000D03*
%TD*%
%TO.P,C4,1*%
%TO.N,Net-(C4-Pad1)*%
X147066000Y-92456000D03*
%TO.P,C4,2*%
%TO.N,Net-(U1C--)*%
X144566000Y-92456000D03*
%TD*%
D24*
%TO.P,,1*%
%TO.N,Vcc*%
X128778000Y-84328000D03*
%TD*%
D23*
%TO.P,,GND1,GND*%
%TO.N,GND*%
X124206000Y-61468000D03*
%TD*%
D10*
%TO.P,C2,1*%
%TO.N,Net-(U1C-+)*%
X144760000Y-87610000D03*
%TO.P,C2,2*%
%TO.N,GND*%
X144760000Y-85110000D03*
%TD*%
%TO.P,,*%
%TO.N,*%
X129286000Y-61468000D03*
%TD*%
D11*
%TO.P,,GND1,GND*%
%TO.N,GND*%
X138430000Y-109728000D03*
%TD*%
D25*
%TO.P,U1,1*%
%TO.N,Net-(U1A--)*%
X132080000Y-77470000D03*
%TO.P,U1,2,-*%
X132080000Y-80010000D03*
%TO.P,U1,3,+*%
%TO.N,Net-(U1A-+)*%
X132080000Y-82550000D03*
%TO.P,U1,4,V+*%
%TO.N,Vcc*%
X132080000Y-85090000D03*
%TO.P,U1,5,+*%
%TO.N,Net-(U1B-+)*%
X132080000Y-87630000D03*
%TO.P,U1,6,-*%
%TO.N,Net-(SW1B-A)*%
X132080000Y-90170000D03*
%TO.P,U1,7*%
X132080000Y-92710000D03*
%TO.P,U1,8*%
%TO.N,Net-(U1C--)*%
X139700000Y-92710000D03*
%TO.P,U1,9,-*%
X139700000Y-90170000D03*
%TO.P,U1,10,+*%
%TO.N,Net-(U1C-+)*%
X139700000Y-87630000D03*
%TO.P,U1,11,V-*%
%TO.N,GND*%
X139700000Y-85090000D03*
%TO.P,U1,12,+*%
%TO.N,Net-(U1D-+)*%
X139700000Y-82550000D03*
%TO.P,U1,13,-*%
%TO.N,Net-(SW2B-A)*%
X139700000Y-80010000D03*
%TO.P,U1,14*%
X139700000Y-77470000D03*
%TD*%
D23*
%TO.P,,GND1,GND*%
%TO.N,GND*%
X194310000Y-104648000D03*
%TD*%
D10*
%TO.P,C7,1*%
%TO.N,Net-(C7-Pad1)*%
X118578000Y-87122000D03*
%TO.P,C7,2*%
%TO.N,Net-(SW1B-A)*%
X116078000Y-87122000D03*
%TD*%
D26*
%TO.N,/A1*%
X108959500Y-93846500D02*
X109474000Y-94361000D01*
X108299500Y-93846500D02*
X108959500Y-93846500D01*
X109982000Y-95377000D02*
X109982000Y-97282000D01*
D27*
X151130000Y-111041600D02*
X151130000Y-109728000D01*
X151086400Y-111041600D02*
X150371089Y-111756911D01*
X150371089Y-111756911D02*
X121916911Y-111756911D01*
D26*
X151130000Y-111041600D02*
X151086400Y-111041600D01*
X109474000Y-94869000D02*
X109982000Y-95377000D01*
D27*
X121916911Y-111756911D02*
X110490000Y-100330000D01*
D26*
X109982000Y-97282000D02*
X110490000Y-97790000D01*
X109474000Y-94361000D02*
X109474000Y-94869000D01*
D27*
X151130000Y-109728000D02*
X151130000Y-105156000D01*
X110490000Y-100330000D02*
X110490000Y-97790000D01*
%TO.N,GND*%
X123063000Y-63754000D02*
X124206000Y-62611000D01*
X138430000Y-109728000D02*
X140970000Y-109728000D01*
X154706000Y-85110000D02*
X144760000Y-85110000D01*
X140970000Y-105913000D02*
X139959000Y-104902000D01*
X165227000Y-88773000D02*
X164592000Y-89408000D01*
X107950000Y-79502000D02*
X107950000Y-74168000D01*
X108966000Y-80518000D02*
X107950000Y-79502000D01*
X139959000Y-104902000D02*
X139959000Y-103637000D01*
X122428000Y-80518000D02*
X108966000Y-80518000D01*
X186690000Y-102362000D02*
X186690000Y-101854000D01*
X186441000Y-88900000D02*
X186441000Y-85349000D01*
X182372000Y-81280000D02*
X167894000Y-81280000D01*
X188976000Y-104648000D02*
X191770000Y-104648000D01*
X125730000Y-80264000D02*
X126024000Y-80264000D01*
X144760000Y-81300000D02*
X144800000Y-81260000D01*
X126278000Y-87376000D02*
X122936000Y-87376000D01*
X165227000Y-83947000D02*
X165227000Y-88773000D01*
X124206000Y-62611000D02*
X124206000Y-61468000D01*
X186690000Y-102362000D02*
X188976000Y-104648000D01*
X167894000Y-81280000D02*
X165227000Y-83947000D01*
X164592000Y-89408000D02*
X159004000Y-89408000D01*
X159004000Y-89408000D02*
X154706000Y-85110000D01*
X138176000Y-101854000D02*
X127254000Y-101854000D01*
X122428000Y-86868000D02*
X122428000Y-80518000D01*
X125476000Y-103632000D02*
X125476000Y-105156000D01*
X107950000Y-74168000D02*
X118364000Y-63754000D01*
X186441000Y-101605000D02*
X186441000Y-88900000D01*
X118364000Y-63754000D02*
X123063000Y-63754000D01*
X122936000Y-87376000D02*
X122428000Y-86868000D01*
X139959000Y-103637000D02*
X138176000Y-101854000D01*
X139700000Y-85090000D02*
X144740000Y-85090000D01*
X186441000Y-85349000D02*
X182372000Y-81280000D01*
X144760000Y-85110000D02*
X144760000Y-81300000D01*
X191770000Y-104648000D02*
X194310000Y-104648000D01*
X127254000Y-101854000D02*
X125476000Y-103632000D01*
X140970000Y-109728000D02*
X140970000Y-105913000D01*
X126024000Y-80264000D02*
X125770000Y-80518000D01*
X125770000Y-80518000D02*
X122428000Y-80518000D01*
X144740000Y-85090000D02*
X144760000Y-85110000D01*
X186690000Y-101854000D02*
X186441000Y-101605000D01*
%TO.N,Net-(A1Filt1-Pin_2)*%
X122936000Y-105156000D02*
X116078000Y-98298000D01*
X116078000Y-95758000D02*
X114166500Y-93846500D01*
X116078000Y-98298000D02*
X116078000Y-95758000D01*
X114166500Y-93846500D02*
X111599500Y-93846500D01*
%TO.N,/DAC1*%
X184150000Y-109728000D02*
X184150000Y-96520000D01*
X184150000Y-96520000D02*
X180968500Y-93338500D01*
X180968500Y-93338500D02*
X178172500Y-93338500D01*
%TO.N,Vcc*%
X129794000Y-105156000D02*
X130048000Y-104902000D01*
X135890000Y-106431000D02*
X137419000Y-104902000D01*
X135890000Y-109728000D02*
X135890000Y-106431000D01*
X128778000Y-84328000D02*
X131318000Y-84328000D01*
X130048000Y-104902000D02*
X137419000Y-104902000D01*
X131318000Y-84328000D02*
X132080000Y-85090000D01*
%TO.N,Net-(U1A-+)*%
X130810000Y-82550000D02*
X128524000Y-80264000D01*
X132080000Y-82550000D02*
X130810000Y-82550000D01*
X128524000Y-80264000D02*
X128524000Y-76454000D01*
%TO.N,Net-(U1C-+)*%
X157734000Y-91186000D02*
X154178000Y-87630000D01*
X144760000Y-87610000D02*
X139720000Y-87610000D01*
X139720000Y-87610000D02*
X139700000Y-87630000D01*
X154178000Y-87630000D02*
X153162000Y-87630000D01*
X153142000Y-87610000D02*
X144760000Y-87610000D01*
X153162000Y-87630000D02*
X153142000Y-87610000D01*
%TO.N,Net-(C3-Pad1)*%
X112522000Y-78486000D02*
X118364000Y-78486000D01*
X118364000Y-78486000D02*
X118364000Y-73192000D01*
X118364000Y-73192000D02*
X118404000Y-73152000D01*
%TO.N,Net-(U1A--)*%
X134112000Y-85344000D02*
X134112000Y-81026000D01*
X132080000Y-77470000D02*
X132080000Y-80010000D01*
X133096000Y-80010000D02*
X132080000Y-80010000D01*
X132080000Y-77470000D02*
X132080000Y-74168000D01*
X131064000Y-73152000D02*
X120904000Y-73152000D01*
X134112000Y-97536000D02*
X136144000Y-95504000D01*
X136144000Y-95504000D02*
X136144000Y-87376000D01*
X134112000Y-81026000D02*
X133096000Y-80010000D01*
X129032000Y-95758000D02*
X130810000Y-97536000D01*
X130810000Y-97536000D02*
X134112000Y-97536000D01*
X132080000Y-74168000D02*
X131064000Y-73152000D01*
X136144000Y-87376000D02*
X134112000Y-85344000D01*
%TO.N,Net-(U1C--)*%
X139700000Y-90170000D02*
X139700000Y-92710000D01*
X139700000Y-92710000D02*
X144312000Y-92710000D01*
X144312000Y-92710000D02*
X144566000Y-92456000D01*
X144780000Y-92670000D02*
X144566000Y-92456000D01*
X144780000Y-97282000D02*
X144780000Y-92670000D01*
%TO.N,Net-(C4-Pad1)*%
X156464000Y-93218000D02*
X165862000Y-93218000D01*
X148844000Y-92456000D02*
X150368000Y-90932000D01*
X154178000Y-90932000D02*
X156464000Y-93218000D01*
X167894000Y-85852000D02*
X167894000Y-91186000D01*
X165862000Y-93218000D02*
X167894000Y-91186000D01*
X150368000Y-90932000D02*
X154178000Y-90932000D01*
X147066000Y-92456000D02*
X148844000Y-92456000D01*
%TO.N,Net-(U1B-+)*%
X134366000Y-88900000D02*
X134366000Y-94996000D01*
X133096000Y-87630000D02*
X134366000Y-88900000D01*
X131826000Y-87376000D02*
X132080000Y-87630000D01*
X129032000Y-92710000D02*
X129032000Y-91440000D01*
X128778000Y-87376000D02*
X131826000Y-87376000D01*
X131572000Y-95758000D02*
X130810000Y-94996000D01*
X130810000Y-94996000D02*
X130810000Y-94488000D01*
X130810000Y-94488000D02*
X129032000Y-92710000D01*
X134366000Y-94996000D02*
X133604000Y-95758000D01*
X132080000Y-87630000D02*
X133096000Y-87630000D01*
X133604000Y-95758000D02*
X131572000Y-95758000D01*
%TO.N,Net-(U1D-+)*%
X148356000Y-78760000D02*
X152400000Y-82804000D01*
X144252000Y-78760000D02*
X144800000Y-78760000D01*
X139700000Y-82550000D02*
X140462000Y-82550000D01*
X140462000Y-82550000D02*
X144252000Y-78760000D01*
X144800000Y-78760000D02*
X148356000Y-78760000D01*
%TO.N,Net-(C7-Pad1)*%
X118872000Y-87416000D02*
X118578000Y-87122000D01*
X118872000Y-91440000D02*
X118872000Y-95758000D01*
X118872000Y-91440000D02*
X118872000Y-87416000D01*
%TO.N,Net-(SW1B-A)*%
X116586000Y-84836000D02*
X116078000Y-85344000D01*
X130302000Y-89408000D02*
X120904000Y-89408000D01*
X116078000Y-85344000D02*
X116078000Y-87122000D01*
X132080000Y-90170000D02*
X132080000Y-92710000D01*
X120904000Y-84836000D02*
X116586000Y-84836000D01*
X112983000Y-91440000D02*
X112889500Y-91346500D01*
X116078000Y-89408000D02*
X114046000Y-91440000D01*
X120904000Y-89408000D02*
X120904000Y-84836000D01*
X114046000Y-91440000D02*
X112983000Y-91440000D01*
X131064000Y-90170000D02*
X130302000Y-89408000D01*
X112889500Y-91346500D02*
X111599500Y-91346500D01*
X116078000Y-87122000D02*
X116078000Y-89408000D01*
X132080000Y-90170000D02*
X131064000Y-90170000D01*
%TO.N,Net-(SW2B-A)*%
X137922000Y-96266000D02*
X141224000Y-99568000D01*
X173429000Y-97282000D02*
X164826000Y-97282000D01*
X164826000Y-98064000D02*
X164826000Y-97282000D01*
X163322000Y-99568000D02*
X164826000Y-98064000D01*
X137922000Y-81788000D02*
X137922000Y-96266000D01*
X139700000Y-80010000D02*
X137922000Y-81788000D01*
X141224000Y-99568000D02*
X163322000Y-99568000D01*
X139700000Y-77470000D02*
X139700000Y-80010000D01*
X174872500Y-95838500D02*
X173429000Y-97282000D01*
%TO.N,Net-(C8-Pad1)*%
X154940000Y-97282000D02*
X162326000Y-97282000D01*
X154940000Y-95504000D02*
X152400000Y-92964000D01*
X154940000Y-97282000D02*
X154940000Y-95504000D01*
%TO.N,Net-(DAC1Filt1-Pin_2)*%
X183901000Y-88900000D02*
X183901000Y-86619000D01*
X183901000Y-86619000D02*
X180848000Y-83566000D01*
X180848000Y-83566000D02*
X175514000Y-83566000D01*
X171196000Y-87884000D02*
X171196000Y-91694000D01*
X171196000Y-91694000D02*
X172840500Y-93338500D01*
X175514000Y-83566000D02*
X171196000Y-87884000D01*
X172840500Y-93338500D02*
X174872500Y-93338500D01*
%TO.N,Net-(SW1A-A)*%
X102362000Y-93726000D02*
X102362000Y-78232000D01*
X104982500Y-96346500D02*
X102362000Y-93726000D01*
X108299500Y-96346500D02*
X104982500Y-96346500D01*
%TO.N,Net-(SW2A-A)*%
X178172500Y-90838500D02*
X178172500Y-85970500D01*
X178172500Y-85970500D02*
X178054000Y-85852000D01*
D26*
%TO.N,Net-(SW1A-C)*%
X111599500Y-96346500D02*
X111599500Y-95724500D01*
X110249500Y-93296500D02*
X108299500Y-91346500D01*
X111599500Y-95724500D02*
X110249500Y-94374500D01*
X110249500Y-94374500D02*
X110249500Y-93296500D01*
D27*
%TO.N,Net-(SW2A-C)*%
X174872500Y-90838500D02*
X176530000Y-92496000D01*
X176530000Y-94196000D02*
X178172500Y-95838500D01*
X176530000Y-92496000D02*
X176530000Y-94196000D01*
%TD*%
D28*
X196850000Y-110998000D02*
X196850000Y-112268000D01*
X196850000Y-112268000D02*
X97790000Y-112268000D01*
X196850000Y-71628000D02*
X199390000Y-74168000D01*
X199390000Y-108458000D02*
X196850000Y-110998000D01*
X199390000Y-74168000D02*
X199390000Y-108458000D01*
X97790000Y-58928000D02*
X195326000Y-58928000D01*
X97790000Y-112268000D02*
X97790000Y-58928000D01*
X195326000Y-58928000D02*
X196850000Y-60452000D01*
X196850000Y-60452000D02*
X196850000Y-71628000D01*
M02*
